<svg xmlns="http://www.w3.org/2000/svg" aria-hidden="true"
    style="position:absolute;width:0;height:0;overflow:hidden">
    <defs>
        <symbol id="form-click" viewBox="0 0 32 32">
            <path fill="#404bbf"
                d="M4 1.25h24A2.75 2.75 0 0 1 30.75 4v24A2.75 2.75 0 0 1 28 30.75H4A2.75 2.75 0 0 1 1.25 28V4A2.75 2.75 0 0 1 4 1.25z"
                style="fill:var(--color1, #404bbf)" />
            <path fill="#f4f4fd"
                d="M22.891 8.51a1.832 1.832 0 0 1 2.558.02 1.855 1.855 0 0 1 .068 2.571L15.728 23.41a1.845 1.845 0 0 1-1.314.591 1.83 1.83 0 0 1-1.336-.542l-6.492-6.527a1.863 1.863 0 0 1-.451-2.046 1.85 1.85 0 0 1 1.017-1.022 1.823 1.823 0 0 1 1.438.026c.225.101.429.247.597.429l5.137 5.163 8.521-10.915a.628.628 0 0 1 .049-.054h-.002z"
                style="fill:var(--color2, #f4f4fd)" />
            <path fill="none" stroke="#404bbf" stroke-width="2.5"
                d="M4 1.25h24A2.75 2.75 0 0 1 30.75 4v24A2.75 2.75 0 0 1 28 30.75H4A2.75 2.75 0 0 1 1.25 28V4A2.75 2.75 0 0 1 4 1.25z"
                style="stroke:var(--color1, #404bbf)" />
        </symbol>
        <symbol id="form-default" viewBox="0 0 32 32">
            <path fill="#f4f4fd"
                d="M22.921 8.979c.329-.289.766-.449 1.22-.445s.889.169 1.212.462c.324.293.512.691.524 1.11s-.153.825-.459 1.134l-9.31 10.748c-.16.159-.353.287-.568.376s-.447.136-.682.14c-.235.004-.469-.036-.687-.117s-.416-.202-.583-.356l-6.174-5.699c-.172-.148-.31-.326-.405-.524s-.147-.412-.151-.629c-.004-.217.039-.432.127-.633s.219-.384.385-.537c.166-.153.364-.274.582-.356s.451-.121.686-.117c.235.004.467.051.681.14s.408.216.568.374l4.886 4.508 8.104-9.531a.521.521 0 0 1 .047-.047h-.002z"
                style="fill:var(--color2, #f4f4fd)" />
            <path fill="none" stroke="#2e2f42" stroke-width="2.5"
                d="M4 1.25h24A2.75 2.75 0 0 1 30.75 4v24A2.75 2.75 0 0 1 28 30.75H4A2.75 2.75 0 0 1 1.25 28V4A2.75 2.75 0 0 1 4 1.25z"
                style="stroke:var(--color3, #2e2f42)" />
        </symbol>
    </defs>
</svg>